<svg width="22" height="23" viewBox="0 0 22 23" fill="none" xmlns="http://www.w3.org/2000/svg">
  <path d="M20.8437 13.3062C20.8437 17.8936 17.0731 21.6125 12.4218 21.6125C7.77058 21.6125 4 17.8936 4 13.3062C4 8.71883 7.77058 5 12.4218 5C17.0731 5 20.8437 8.71883 20.8437 13.3062Z" fill="black" fill-opacity="0.1"/>
  <path d="M11.8277 1.90909C11.8277 1.40701 11.4207 1 10.9186 1H9.40344C8.90136 1 8.49435 1.40701 8.49435 1.90909V2.95993C8.49435 3.3845 8.19828 3.7469 7.79535 3.88072C6.81884 4.20504 5.93143 4.72467 5.17945 5.39329C4.86247 5.67513 4.40103 5.74989 4.0337 5.53781L3.12137 5.01107C2.68656 4.76003 2.13056 4.90901 1.87953 5.34382L1.12195 6.65598C0.870911 7.09079 1.01989 7.64679 1.4547 7.89782L2.36527 8.42354C2.7326 8.63562 2.89851 9.07259 2.81346 9.48814C2.71351 9.97648 2.66102 10.4821 2.66102 11C2.66102 11.5178 2.7135 12.0234 2.81343 12.5117C2.89847 12.9272 2.73255 13.3642 2.36523 13.5763L1.4547 14.102C1.01989 14.353 0.870908 14.909 1.12195 15.3438L1.87952 16.656C2.13056 17.0908 2.68655 17.2398 3.12136 16.9887L4.03356 16.4621C4.4009 16.25 4.86235 16.3248 5.17933 16.6066C5.93134 17.2753 6.81878 17.7949 7.79535 18.1193C8.19828 18.2531 8.49435 18.6155 8.49435 19.0401V20.0909C8.49435 20.593 8.90136 21 9.40344 21H10.9186C11.4207 21 11.8277 20.593 11.8277 20.0909V19.0401C11.8277 18.6155 12.1237 18.2531 12.5267 18.1193C13.5032 17.7949 14.3907 17.2753 15.1427 16.6066C15.4597 16.3248 15.9211 16.25 16.2885 16.4621L17.2006 16.9887C17.6354 17.2398 18.1914 17.0908 18.4425 16.656L19.2 15.3438C19.4511 14.909 19.3021 14.353 18.8673 14.102L17.9568 13.5763C17.5895 13.3642 17.4236 12.9273 17.5086 12.5117C17.6085 12.0234 17.661 11.5178 17.661 11C17.661 10.4821 17.6085 9.97646 17.5086 9.48811C17.4235 9.07257 17.5894 8.63559 17.9568 8.42351L18.8673 7.89782C19.3021 7.64679 19.4511 7.09079 19.2 6.65598L18.4425 5.34382C18.1914 4.90901 17.6354 4.76003 17.2006 5.01107L16.2883 5.53779C15.921 5.74987 15.4595 5.67511 15.1426 5.39327C14.3906 4.72466 13.5032 4.20504 12.5267 3.88072C12.1237 3.7469 11.8277 3.3845 11.8277 2.95993V1.90909Z" stroke="black"/>
  <circle cx="10.1617" cy="10.9998" r="4.04545" stroke="black"/>
</svg>
