<svg width="803" height="411" viewBox="0 0 803 411" fill="none" xmlns="http://www.w3.org/2000/svg">
<rect opacity="0.8" x="248" y="124" width="72" height="72" rx="8" fill="black" fill-opacity="0.1" stroke="white"/>
<path d="M284.5 168.766C289.273 168.766 293.17 164.869 293.17 160.096C293.17 155.323 289.273 151.426 284.5 151.426C279.727 151.426 275.83 155.323 275.83 160.096C275.83 164.869 279.727 168.766 284.5 168.766Z" fill="white"/>
<rect opacity="0.8" x="329" y="124" width="72" height="72" rx="8" fill="black" fill-opacity="0.1" stroke="white"/>
<path d="M366.5 168.766C371.273 168.766 375.17 164.869 375.17 160.096C375.17 155.323 371.273 151.426 366.5 151.426C361.727 151.426 357.83 155.323 357.83 160.096C357.83 164.869 361.727 168.766 366.5 168.766Z" fill="white"/>
<rect opacity="0.8" x="410" y="124" width="72" height="72" rx="8" fill="black" fill-opacity="0.1" stroke="white"/>
<path d="M446 168.766C450.773 168.766 454.67 164.869 454.67 160.096C454.67 155.323 450.773 151.426 446 151.426C441.227 151.426 437.33 155.323 437.33 160.096C437.33 164.869 441.227 168.766 446 168.766Z" fill="white"/>
<rect opacity="0.8" x="491" y="124" width="72" height="72" rx="36" fill="white" fill-opacity="0.1" stroke="white" stroke-opacity="0.1"/>
<path d="M361.721 246.56C361.721 248.6 363.421 249.025 363.421 249.025L361.551 252H362.911L364.611 249.28H366.991V252H368.181V243.84H364.696C362.911 243.84 361.721 245.03 361.721 246.56ZM366.991 244.945V248.175H364.696C363.591 248.175 362.911 247.495 362.911 246.56C362.911 245.625 363.591 244.945 364.696 244.945H366.991ZM379.999 252H381.189V243.84H379.999V247.325H375.324V243.84H374.134V252H375.324V248.43H379.999V252ZM391.138 248.362C391.138 248.362 391.223 248.09 391.223 247.75C391.223 245.37 389.523 243.67 387.313 243.67C385.188 243.67 383.318 245.54 383.318 247.92C383.318 250.3 385.188 252.17 387.398 252.17C389.608 252.17 390.798 250.47 390.798 250.47L390.033 249.705C390.033 249.705 389.115 251.065 387.398 251.065C385.868 251.065 384.593 249.79 384.508 248.345L391.138 248.362ZM387.313 244.775C388.758 244.775 389.863 245.88 390.033 247.325H384.508C384.678 245.965 385.868 244.775 387.313 244.775ZM402.445 252H403.635V243.84H396.58V252H397.77V244.962H402.445V252ZM412.903 247.92C412.903 249.705 411.543 251.065 409.928 251.065C408.313 251.065 406.953 249.688 406.953 247.92C406.953 246.135 408.313 244.775 409.928 244.775C411.543 244.775 412.903 246.135 412.903 247.92ZM405.763 247.92C405.763 250.3 407.633 252.17 409.928 252.17C412.223 252.17 414.093 250.3 414.093 247.92C414.093 245.54 412.223 243.67 409.928 243.67C407.633 243.67 405.763 245.54 405.763 247.92ZM423.359 245.965V252H424.549V243.84H423.614L420.384 247.92L417.154 243.84H416.219V252H417.409V245.965L420.384 249.705L423.359 245.965ZM433.141 252H434.331V243.84H433.141V247.325H428.466V243.84H427.276V252H428.466V248.43H433.141V252ZM448.189 247.92C448.189 245.54 446.319 243.67 444.109 243.67C441.984 243.67 440.284 245.37 440.029 247.325H438.244V243.84H437.054V252H438.244V248.43H440.029C440.284 250.47 441.984 252.17 444.109 252.17C446.319 252.17 448.189 250.3 448.189 247.92ZM441.219 247.92C441.219 246.135 442.579 244.775 444.109 244.775C445.639 244.775 446.999 246.135 446.999 247.92C446.999 249.705 445.639 251.065 444.109 251.065C442.579 251.065 441.219 249.705 441.219 247.92Z" fill="white" fill-opacity="0.6"/>
<rect width="803" height="411" rx="8" transform="matrix(1 0 0 -1 0 411)" fill="#FAFAFA"/>
<mask id="mask0" mask-type="alpha" maskUnits="userSpaceOnUse" x="0" y="0" width="803" height="411">
<rect width="803" height="411" rx="8" transform="matrix(1 0 0 -1 0 411)" fill="#FAFAFA"/>
</mask>
<g mask="url(#mask0)">
<path d="M-602.418 -287.713C-627.772 -382.288 -570.878 -479.698 -475.343 -505.284L562.548 -783.253C658.084 -808.839 756.083 -752.913 781.437 -658.338L1060.43 382.367C1085.78 476.942 1028.89 574.352 933.351 599.939L414.406 738.923L131.07 814.806C90.6031 825.644 55.1821 850.184 30.9698 884.155L-127.352 1106.29C-156.603 1147.33 -220.708 1136.17 -233.682 1087.77L-602.418 -287.713Z" fill="#3200C0"/>
<path d="M-602.418 -287.713C-627.772 -382.288 -570.878 -479.698 -475.343 -505.284L562.548 -783.253C658.084 -808.839 756.083 -752.913 781.437 -658.338L1060.43 382.367C1085.78 476.942 1028.89 574.352 933.351 599.939L414.406 738.923L131.07 814.806C90.6031 825.644 55.1821 850.184 30.9698 884.155L-127.352 1106.29C-156.603 1147.33 -220.708 1136.17 -233.682 1087.77L-602.418 -287.713Z" fill="url(#paint0_linear)" style="mix-blend-mode:overlay"/>
<path d="M1113.21 645.66L516.797 1174.28C477.545 1209.07 431.456 1260.76 423.691 1312.72L367.016 1658.17C357.635 1720.94 302.228 1730.43 259.977 1682.8L-770.881 530.272L60.9073 -205.887C152.674 -287.223 293.043 -278.792 374.43 -187.056L743.818 229.302V229.302C846.784 345.361 1023.29 358.852 1142.7 259.789L1157.24 247.731L1113.21 645.66Z" fill="#8E58CB"/>
<path d="M1113.21 645.66L516.797 1174.28C477.545 1209.07 431.456 1260.76 423.691 1312.72L367.016 1658.17C357.635 1720.94 302.228 1730.43 259.977 1682.8L-770.881 530.272L60.9073 -205.887C152.674 -287.223 293.043 -278.792 374.43 -187.056L743.818 229.302V229.302C846.784 345.361 1023.29 358.852 1142.7 259.789L1157.24 247.731L1113.21 645.66Z" fill="url(#paint1_linear)" style="mix-blend-mode:overlay"/>
<path d="M1113.21 645.66L516.797 1174.28C477.545 1209.07 431.456 1260.76 423.691 1312.72L367.016 1658.17C357.635 1720.94 302.228 1730.43 259.977 1682.8L-770.881 530.272L60.9073 -205.887C152.674 -287.223 293.043 -278.792 374.43 -187.056L743.818 229.302V229.302C846.784 345.361 1023.29 358.852 1142.7 259.789L1157.24 247.731L1113.21 645.66Z" fill="#F9F9FF"/>
<path d="M628.046 718.25L423.019 913.404C386.696 946.949 370.336 986.967 363.712 1035.76L325.005 1335.42C319.852 1423.69 242.898 1437.24 202.742 1393.8L-462.105 672.498L-50.1424 292.934C34.776 214.509 167.231 219.752 245.704 304.642L628.046 718.25Z" fill="#EB7C2E"/>
<path d="M628.046 718.25L423.019 913.404C386.696 946.949 370.336 986.967 363.712 1035.76L325.005 1335.42C319.852 1423.69 242.898 1437.24 202.742 1393.8L-462.105 672.498L-50.1424 292.934C34.776 214.509 167.231 219.752 245.704 304.642L628.046 718.25Z" fill="#F8B74D"/>
<path d="M628.046 718.25L423.019 913.404C386.696 946.949 370.336 986.967 363.712 1035.76L325.005 1335.42C319.852 1423.69 242.898 1437.24 202.742 1393.8L-462.105 672.498L-50.1424 292.934C34.776 214.509 167.231 219.752 245.704 304.642L628.046 718.25Z" fill="url(#paint2_linear)" style="mix-blend-mode:overlay"/>
<path d="M400.102 66.7282C407.627 66.9329 414.792 70.1082 421.424 73.9009C429.945 78.7978 437.758 85.3487 442.591 93.8243C444.526 97.2423 445.921 101.033 446.202 104.938C446.202 104.938 446.18 106.416 445.15 106.997C443.737 107.775 442.235 106.508 442.011 104.511C440.883 94.9847 433.148 86.9853 425.057 81.1481C417.573 75.7399 408.925 71.4884 399.985 70.8506C399.985 70.8506 398.968 70.7099 398.456 70.0076C397.596 68.8319 398.197 66.9957 399.911 66.748C399.979 66.7234 400.031 66.718 400.102 66.7282Z" fill="#010101"/>
<path d="M477.432 57.4592C479.034 57.4866 479.146 58.0547 479.42 58.8343C479.868 60.1053 478.915 61.2578 477.084 61.7285C468.525 63.9317 461.741 71.0453 456.314 78.5451C451.163 85.6477 446.696 93.7509 446.127 102.171C446.038 103.515 446.234 105.409 446.234 105.409C446.247 107.568 442.342 108.886 442.028 104.843C441.385 96.9355 444.978 89.0457 449.254 81.8054C455.52 71.2149 464.191 60.9377 475.764 57.8076C476.019 57.7284 476.276 57.6667 476.533 57.6049C477.05 57.4988 477.187 57.467 477.432 57.4592Z" fill="#010101"/>
<path d="M434.383 23.0788C433.707 36.7441 428.958 50.269 418.049 59.6362C412.933 64.0301 407.018 67.4879 400.989 70.3603C399.449 71.0994 397.425 69.8861 397.779 68.2159C397.966 67.3008 398.896 66.7829 399.799 66.3381C412.666 60.0881 424.498 50.6428 428.398 35.871C429.853 30.4156 430.317 24.7117 430.384 19.0839" fill="#010101"/>
<path d="M435.914 24.958C438.831 34.9667 445.183 43.8646 454.312 49.5417C461.3 53.8946 469.388 56.307 477.492 57.3476C477.492 57.3476 479.571 57.9053 479.524 59.491C479.489 60.8471 478.089 61.5892 476.308 61.3521C463.046 59.5455 449.947 54.0511 441.129 43.5816C435.437 36.811 431.979 28.3689 430.456 19.6035" fill="#010101"/>
<path d="M121.652 10.673C123.145 4.35433 119.231 -1.9775 112.909 -3.46952C106.587 -4.96155 100.252 -1.04876 98.7595 5.26994C97.2667 11.5886 101.181 17.9205 107.503 19.4125C113.825 20.9045 120.16 16.9917 121.652 10.673Z" stroke="#010101" stroke-width="2" stroke-miterlimit="10"/>
<path d="M275.592 320.725C277.171 320.995 276.569 323.881 276.382 326.27C275.551 337.048 270.46 347.245 262.482 354.7C260.175 356.839 257.869 358.75 253.921 358.314C252.01 358.127 253.568 358.293 252.342 358.687C251.345 359.02 250.348 357.317 251.553 356.465C253.111 355.344 255.293 356.943 257.059 356.029C259.76 354.638 261.921 352.353 263.978 350.048C270.813 342.447 274.387 332.521 274.408 321.784C274.408 321.805 274.616 320.662 275.592 320.725ZM253.069 357.753C253.09 357.67 253.069 357.732 253.069 357.753Z" fill="#010101"/>
<path d="M275.592 320.725C277.171 320.995 276.569 323.881 276.382 326.27C275.551 337.048 270.46 347.245 262.482 354.7C260.175 356.839 257.869 358.75 253.921 358.314C252.01 358.127 253.568 358.293 252.342 358.687C251.345 359.02 250.348 357.317 251.553 356.465C253.111 355.344 255.293 356.943 257.059 356.029C259.76 354.638 261.921 352.353 263.978 350.048C270.813 342.447 274.387 332.521 274.408 321.784C274.408 321.805 274.616 320.662 275.592 320.725Z" stroke="black" stroke-miterlimit="10"/>
<path d="M276.258 319.001C277.276 319.146 277.775 320.725 276.424 321.119C276.424 321.119 276.632 325.48 277.879 329.613C279.728 335.781 282.99 341.7 289.265 344.711C294.106 347.037 299.466 347.972 304.578 349.654C304.848 349.737 306.219 350.837 305.118 351.627C304.224 352.27 302.874 351.357 301.482 350.941C292.589 348.304 282.907 345.978 278.128 336.674C275.676 331.918 273.723 326.02 274.201 321.285C274.284 320.206 274.658 318.959 276.258 319.001Z" fill="#010101"/>
<path d="M276.258 319.001C277.276 319.146 277.775 320.725 276.424 321.119C276.424 321.119 276.632 325.48 277.879 329.613C279.728 335.781 282.99 341.7 289.265 344.711C294.106 347.037 299.466 347.972 304.578 349.654C304.848 349.737 306.219 350.837 305.118 351.627C304.224 352.27 302.874 351.357 301.482 350.941C292.589 348.304 282.907 345.978 278.128 336.674C275.676 331.918 273.723 326.02 274.201 321.285C274.284 320.206 274.658 318.959 276.258 319.001Z" stroke="black" stroke-miterlimit="10"/>
<path d="M304.723 351.211C306.074 351.253 307.86 352.893 306.551 354.015C305.97 354.492 304.952 354.16 304.785 353.371C301.648 353.122 297.887 355.406 294.708 357.545C289.888 360.743 286.023 365.312 283.468 370.379C279.686 377.876 278.647 386.453 278.627 394.677C278.627 394.677 278.606 395.736 277.879 395.965C276.32 396.463 276.445 392.974 276.59 390.275C276.653 389.257 276.715 388.239 276.819 387.242C277.941 375.26 282.387 363.132 293.524 355.738C296.994 353.433 301.232 351.19 304.723 351.211Z" fill="#010101"/>
<path d="M304.723 351.211C306.074 351.253 307.86 352.893 306.551 354.015C305.97 354.492 304.952 354.16 304.785 353.371C301.648 353.122 297.887 355.406 294.708 357.545C289.888 360.743 286.023 365.312 283.468 370.379C279.686 377.876 278.647 386.453 278.627 394.677C278.627 394.677 278.606 395.736 277.879 395.965C276.32 396.463 276.445 392.974 276.59 390.275C276.653 389.257 276.715 388.239 276.819 387.242C277.941 375.26 282.387 363.132 293.524 355.738C296.994 353.433 301.232 351.19 304.723 351.211Z" stroke="black" stroke-miterlimit="10"/>
<path d="M257.288 356.611C257.994 356.715 258.098 357.67 258.576 357.857C263.5 359.622 266.929 364.378 270.128 368.261C275.531 374.824 278.917 382.84 278.98 391.604C278.98 391.604 279.021 392.331 278.585 392.684C277.837 393.265 276.84 392.829 276.819 391.147C276.611 380.119 270.004 370.65 261.631 362.26C260.571 361.2 259.366 360.474 257.558 359.767C256.789 359.456 255.896 358.999 255.938 357.94C255.917 357.94 256.166 356.569 257.288 356.611Z" fill="#010101"/>
<path d="M257.288 356.611C257.994 356.715 258.098 357.67 258.576 357.857C263.5 359.622 266.929 364.378 270.128 368.261C275.531 374.824 278.917 382.84 278.98 391.604C278.98 391.604 279.021 392.331 278.585 392.684C277.837 393.265 276.84 392.829 276.819 391.147C276.611 380.119 270.004 370.65 261.631 362.26C260.571 361.2 259.366 360.474 257.558 359.767C256.789 359.456 255.896 358.999 255.938 357.94C255.917 357.94 256.166 356.569 257.288 356.611Z" stroke="black" stroke-miterlimit="10"/>
</g>
<defs>
<linearGradient id="paint0_linear" x1="656.684" y1="-239.968" x2="351.066" y2="312.553" gradientUnits="userSpaceOnUse">
<stop stop-color="white"/>
<stop offset="1" stop-color="white" stop-opacity="0"/>
</linearGradient>
<linearGradient id="paint1_linear" x1="274.943" y1="-1403.21" x2="-22.803" y2="986.117" gradientUnits="userSpaceOnUse">
<stop stop-color="white"/>
<stop offset="1" stop-color="white" stop-opacity="0"/>
</linearGradient>
<linearGradient id="paint2_linear" x1="-77.4865" y1="-614.725" x2="-156.903" y2="970.276" gradientUnits="userSpaceOnUse">
<stop stop-color="white"/>
<stop offset="1" stop-color="white" stop-opacity="0"/>
</linearGradient>
</defs>
</svg>
